<mxfile host="app.diagrams.net" agent="Mozilla/5.0 (Windows NT 10.0; Win64; x64) AppleWebKit/537.36 (KHTML, like Gecko) Chrome/128.0.0.0 Safari/537.36" version="24.7.14">
  <diagram name="Page-1" id="GYH26-BE-DL42qdZflEd">
    <mxGraphModel dx="1090" dy="-1040" grid="1" gridSize="10" guides="1" tooltips="1" connect="1" arrows="1" fold="1" page="1" pageScale="1" pageWidth="850" pageHeight="1100" math="0" shadow="0">
      <root>
        <mxCell id="0" />
        <mxCell id="1" parent="0" />
        <mxCell id="LXDzyqrESPQ0gwNqlJLr-19" value="AWS Data Center" style="points=[[0,0],[0.25,0],[0.5,0],[0.75,0],[1,0],[1,0.25],[1,0.5],[1,0.75],[1,1],[0.75,1],[0.5,1],[0.25,1],[0,1],[0,0.75],[0,0.5],[0,0.25]];outlineConnect=0;gradientColor=none;html=1;whiteSpace=wrap;fontSize=12;fontStyle=0;container=1;pointerEvents=0;collapsible=0;recursiveResize=0;shape=mxgraph.aws4.group;grIcon=mxgraph.aws4.group_account;strokeColor=#CD2264;fillColor=none;verticalAlign=top;align=left;spacingLeft=30;fontColor=#CD2264;dashed=0;" parent="1" vertex="1">
          <mxGeometry x="1720" y="2408.24" width="1660" height="701.76" as="geometry" />
        </mxCell>
        <mxCell id="LXDzyqrESPQ0gwNqlJLr-20" value="Virginia" style="points=[[0,0],[0.25,0],[0.5,0],[0.75,0],[1,0],[1,0.25],[1,0.5],[1,0.75],[1,1],[0.75,1],[0.5,1],[0.25,1],[0,1],[0,0.75],[0,0.5],[0,0.25]];outlineConnect=0;gradientColor=none;html=1;whiteSpace=wrap;fontSize=12;fontStyle=0;container=1;pointerEvents=0;collapsible=0;recursiveResize=0;shape=mxgraph.aws4.group;grIcon=mxgraph.aws4.group_region;strokeColor=#00A4A6;fillColor=none;verticalAlign=top;align=left;spacingLeft=30;fontColor=#147EBA;dashed=1;" parent="LXDzyqrESPQ0gwNqlJLr-19" vertex="1">
          <mxGeometry x="40" y="50" width="1550" height="620" as="geometry" />
        </mxCell>
        <mxCell id="LXDzyqrESPQ0gwNqlJLr-21" value="Data Analytic Platform (City of Vancouver)" style="fillColor=none;strokeColor=#5A6C86;dashed=1;verticalAlign=top;fontStyle=0;fontColor=#5A6C86;whiteSpace=wrap;html=1;" parent="LXDzyqrESPQ0gwNqlJLr-20" vertex="1">
          <mxGeometry x="30" y="60" width="1470" height="530" as="geometry" />
        </mxCell>
        <mxCell id="LXDzyqrESPQ0gwNqlJLr-24" value="Bucket Structure:&lt;div&gt;/Raw&lt;/div&gt;" style="shape=image;html=1;verticalAlign=top;verticalLabelPosition=bottom;labelBackgroundColor=#ffffff;imageAspect=0;aspect=fixed;image=https://cdn1.iconfinder.com/data/icons/systemui/21/hierarchy-128.png" parent="LXDzyqrESPQ0gwNqlJLr-20" vertex="1">
          <mxGeometry x="1000" y="361.76" width="89" height="89" as="geometry" />
        </mxCell>
        <mxCell id="LXDzyqrESPQ0gwNqlJLr-25" value="Amazon S3" style="sketch=0;outlineConnect=0;fontColor=#232F3E;gradientColor=none;strokeColor=#ffffff;fillColor=#232F3E;dashed=0;verticalLabelPosition=middle;verticalAlign=bottom;align=center;html=1;whiteSpace=wrap;fontSize=10;fontStyle=1;spacing=3;shape=mxgraph.aws4.productIcon;prIcon=mxgraph.aws4.s3;" parent="LXDzyqrESPQ0gwNqlJLr-20" vertex="1">
          <mxGeometry x="463" y="141.76000000000022" width="60" height="80" as="geometry" />
        </mxCell>
        <mxCell id="LXDzyqrESPQ0gwNqlJLr-26" value="Bucket: City of Vancouver" style="sketch=0;outlineConnect=0;fontColor=#232F3E;gradientColor=none;fillColor=#7AA116;strokeColor=none;dashed=0;verticalLabelPosition=bottom;verticalAlign=top;align=center;html=1;fontSize=12;fontStyle=0;aspect=fixed;pointerEvents=1;shape=mxgraph.aws4.bucket_with_objects;" parent="LXDzyqrESPQ0gwNqlJLr-20" vertex="1">
          <mxGeometry x="473" y="269" width="50" height="52" as="geometry" />
        </mxCell>
        <mxCell id="LXDzyqrESPQ0gwNqlJLr-27" value="Bucket Structure:&lt;div&gt;/Landing&lt;/div&gt;" style="shape=image;html=1;verticalAlign=top;verticalLabelPosition=bottom;labelBackgroundColor=#ffffff;imageAspect=0;aspect=fixed;image=https://cdn1.iconfinder.com/data/icons/systemui/21/hierarchy-128.png" parent="LXDzyqrESPQ0gwNqlJLr-20" vertex="1">
          <mxGeometry x="453.5" y="367.0000000000002" width="89" height="89" as="geometry" />
        </mxCell>
        <mxCell id="LXDzyqrESPQ0gwNqlJLr-29" value="Stream Ingestion" style="sketch=0;outlineConnect=0;fontColor=#232F3E;gradientColor=none;fillColor=#7AA116;strokeColor=none;dashed=0;verticalLabelPosition=bottom;verticalAlign=top;align=center;html=1;fontSize=12;fontStyle=0;aspect=fixed;pointerEvents=1;shape=mxgraph.aws4.iot_analytics_pipeline;" parent="LXDzyqrESPQ0gwNqlJLr-20" vertex="1">
          <mxGeometry x="291" y="278.7600000000002" width="78" height="42" as="geometry" />
        </mxCell>
        <mxCell id="LXDzyqrESPQ0gwNqlJLr-30" value="Amazon S3" style="sketch=0;outlineConnect=0;fontColor=#232F3E;gradientColor=none;strokeColor=#ffffff;fillColor=#232F3E;dashed=0;verticalLabelPosition=middle;verticalAlign=bottom;align=center;html=1;whiteSpace=wrap;fontSize=10;fontStyle=1;spacing=3;shape=mxgraph.aws4.productIcon;prIcon=mxgraph.aws4.s3;" parent="LXDzyqrESPQ0gwNqlJLr-20" vertex="1">
          <mxGeometry x="786" y="140.76000000000022" width="60" height="80" as="geometry" />
        </mxCell>
        <mxCell id="LXDzyqrESPQ0gwNqlJLr-31" value="Bucket: City of Vancouver" style="sketch=0;outlineConnect=0;fontColor=#232F3E;gradientColor=none;fillColor=#7AA116;strokeColor=none;dashed=0;verticalLabelPosition=bottom;verticalAlign=top;align=center;html=1;fontSize=12;fontStyle=0;aspect=fixed;pointerEvents=1;shape=mxgraph.aws4.bucket_with_objects;" parent="LXDzyqrESPQ0gwNqlJLr-20" vertex="1">
          <mxGeometry x="796" y="270.7600000000002" width="50" height="52" as="geometry" />
        </mxCell>
        <mxCell id="LXDzyqrESPQ0gwNqlJLr-32" value="Bucket Structure:&lt;div&gt;/Raw&lt;/div&gt;" style="shape=image;html=1;verticalAlign=top;verticalLabelPosition=bottom;labelBackgroundColor=#ffffff;imageAspect=0;aspect=fixed;image=https://cdn1.iconfinder.com/data/icons/systemui/21/hierarchy-128.png" parent="LXDzyqrESPQ0gwNqlJLr-20" vertex="1">
          <mxGeometry x="780.5" y="367" width="89" height="89" as="geometry" />
        </mxCell>
        <mxCell id="LXDzyqrESPQ0gwNqlJLr-33" value="ETL" style="sketch=0;outlineConnect=0;fontColor=#232F3E;gradientColor=none;fillColor=#7AA116;strokeColor=none;dashed=0;verticalLabelPosition=bottom;verticalAlign=top;align=center;html=1;fontSize=12;fontStyle=0;aspect=fixed;pointerEvents=1;shape=mxgraph.aws4.iot_analytics_pipeline;" parent="LXDzyqrESPQ0gwNqlJLr-20" vertex="1">
          <mxGeometry x="629" y="279.7600000000002" width="78" height="42" as="geometry" />
        </mxCell>
        <mxCell id="LXDzyqrESPQ0gwNqlJLr-34" value="Glue" style="sketch=0;points=[[0,0,0],[0.25,0,0],[0.5,0,0],[0.75,0,0],[1,0,0],[0,1,0],[0.25,1,0],[0.5,1,0],[0.75,1,0],[1,1,0],[0,0.25,0],[0,0.5,0],[0,0.75,0],[1,0.25,0],[1,0.5,0],[1,0.75,0]];outlineConnect=0;fontColor=#232F3E;fillColor=#8C4FFF;strokeColor=#ffffff;dashed=0;verticalLabelPosition=bottom;verticalAlign=top;align=center;html=1;fontSize=12;fontStyle=0;aspect=fixed;shape=mxgraph.aws4.resourceIcon;resIcon=mxgraph.aws4.glue;" parent="LXDzyqrESPQ0gwNqlJLr-20" vertex="1">
          <mxGeometry x="640" y="142.76" width="61" height="61" as="geometry" />
        </mxCell>
        <mxCell id="E7bKhl_w1srlUKCU2z49-2" value="Glue" style="sketch=0;points=[[0,0,0],[0.25,0,0],[0.5,0,0],[0.75,0,0],[1,0,0],[0,1,0],[0.25,1,0],[0.5,1,0],[0.75,1,0],[1,1,0],[0,0.25,0],[0,0.5,0],[0,0.75,0],[1,0.25,0],[1,0.5,0],[1,0.75,0]];outlineConnect=0;fontColor=#232F3E;fillColor=#8C4FFF;strokeColor=#ffffff;dashed=0;verticalLabelPosition=bottom;verticalAlign=top;align=center;html=1;fontSize=12;fontStyle=0;aspect=fixed;shape=mxgraph.aws4.resourceIcon;resIcon=mxgraph.aws4.glue;" vertex="1" parent="LXDzyqrESPQ0gwNqlJLr-20">
          <mxGeometry x="299.5" y="139.99999999999955" width="61" height="61" as="geometry" />
        </mxCell>
        <mxCell id="E7bKhl_w1srlUKCU2z49-1" value="Amazon CloudWatch" style="sketch=0;outlineConnect=0;fontColor=#232F3E;gradientColor=none;strokeColor=#ffffff;fillColor=#232F3E;dashed=0;verticalLabelPosition=middle;verticalAlign=bottom;align=center;html=1;whiteSpace=wrap;fontSize=10;fontStyle=1;spacing=3;shape=mxgraph.aws4.productIcon;prIcon=mxgraph.aws4.cloudwatch;" vertex="1" parent="LXDzyqrESPQ0gwNqlJLr-20">
          <mxGeometry x="130" y="141.76" width="70" height="98.24" as="geometry" />
        </mxCell>
        <mxCell id="E7bKhl_w1srlUKCU2z49-4" value="Amazon S3" style="sketch=0;outlineConnect=0;fontColor=#232F3E;gradientColor=none;strokeColor=#ffffff;fillColor=#232F3E;dashed=0;verticalLabelPosition=middle;verticalAlign=bottom;align=center;html=1;whiteSpace=wrap;fontSize=10;fontStyle=1;spacing=3;shape=mxgraph.aws4.productIcon;prIcon=mxgraph.aws4.s3;" vertex="1" parent="LXDzyqrESPQ0gwNqlJLr-20">
          <mxGeometry x="1010" y="142.76000000000022" width="60" height="80" as="geometry" />
        </mxCell>
        <mxCell id="E7bKhl_w1srlUKCU2z49-5" value="Glue" style="sketch=0;points=[[0,0,0],[0.25,0,0],[0.5,0,0],[0.75,0,0],[1,0,0],[0,1,0],[0.25,1,0],[0.5,1,0],[0.75,1,0],[1,1,0],[0,0.25,0],[0,0.5,0],[0,0.75,0],[1,0.25,0],[1,0.5,0],[1,0.75,0]];outlineConnect=0;fontColor=#232F3E;fillColor=#8C4FFF;strokeColor=#ffffff;dashed=0;verticalLabelPosition=bottom;verticalAlign=top;align=center;html=1;fontSize=12;fontStyle=0;aspect=fixed;shape=mxgraph.aws4.resourceIcon;resIcon=mxgraph.aws4.glue;" vertex="1" parent="LXDzyqrESPQ0gwNqlJLr-20">
          <mxGeometry x="1187" y="143.75999999999976" width="61" height="61" as="geometry" />
        </mxCell>
        <mxCell id="E7bKhl_w1srlUKCU2z49-6" value="Amazon S3" style="sketch=0;outlineConnect=0;fontColor=#232F3E;gradientColor=none;strokeColor=#ffffff;fillColor=#232F3E;dashed=0;verticalLabelPosition=middle;verticalAlign=bottom;align=center;html=1;whiteSpace=wrap;fontSize=10;fontStyle=1;spacing=3;shape=mxgraph.aws4.productIcon;prIcon=mxgraph.aws4.s3;" vertex="1" parent="LXDzyqrESPQ0gwNqlJLr-20">
          <mxGeometry x="1333" y="141.76000000000022" width="60" height="80" as="geometry" />
        </mxCell>
        <mxCell id="E7bKhl_w1srlUKCU2z49-7" value="Bucket: City of Vancouver" style="sketch=0;outlineConnect=0;fontColor=#232F3E;gradientColor=none;fillColor=#7AA116;strokeColor=none;dashed=0;verticalLabelPosition=bottom;verticalAlign=top;align=center;html=1;fontSize=12;fontStyle=0;aspect=fixed;pointerEvents=1;shape=mxgraph.aws4.bucket_with_objects;" vertex="1" parent="LXDzyqrESPQ0gwNqlJLr-20">
          <mxGeometry x="1020" y="270" width="50" height="52" as="geometry" />
        </mxCell>
        <mxCell id="E7bKhl_w1srlUKCU2z49-8" value="ETL" style="sketch=0;outlineConnect=0;fontColor=#232F3E;gradientColor=none;fillColor=#7AA116;strokeColor=none;dashed=0;verticalLabelPosition=bottom;verticalAlign=top;align=center;html=1;fontSize=12;fontStyle=0;aspect=fixed;pointerEvents=1;shape=mxgraph.aws4.iot_analytics_pipeline;" vertex="1" parent="LXDzyqrESPQ0gwNqlJLr-20">
          <mxGeometry x="1176" y="280.7600000000002" width="78" height="42" as="geometry" />
        </mxCell>
        <mxCell id="E7bKhl_w1srlUKCU2z49-9" value="Bucket: City of Vancouver" style="sketch=0;outlineConnect=0;fontColor=#232F3E;gradientColor=none;fillColor=#7AA116;strokeColor=none;dashed=0;verticalLabelPosition=bottom;verticalAlign=top;align=center;html=1;fontSize=12;fontStyle=0;aspect=fixed;pointerEvents=1;shape=mxgraph.aws4.bucket_with_objects;" vertex="1" parent="LXDzyqrESPQ0gwNqlJLr-20">
          <mxGeometry x="1343" y="271.7600000000002" width="50" height="52" as="geometry" />
        </mxCell>
        <mxCell id="E7bKhl_w1srlUKCU2z49-10" value="Bucket Structure:&lt;div&gt;/Trusted&lt;/div&gt;" style="shape=image;html=1;verticalAlign=top;verticalLabelPosition=bottom;labelBackgroundColor=#ffffff;imageAspect=0;aspect=fixed;image=https://cdn1.iconfinder.com/data/icons/systemui/21/hierarchy-128.png" vertex="1" parent="LXDzyqrESPQ0gwNqlJLr-20">
          <mxGeometry x="1323.5" y="366.99999999999955" width="89" height="89" as="geometry" />
        </mxCell>
        <mxCell id="E7bKhl_w1srlUKCU2z49-11" value="KMS" style="sketch=0;points=[[0,0,0],[0.25,0,0],[0.5,0,0],[0.75,0,0],[1,0,0],[0,1,0],[0.25,1,0],[0.5,1,0],[0.75,1,0],[1,1,0],[0,0.25,0],[0,0.5,0],[0,0.75,0],[1,0.25,0],[1,0.5,0],[1,0.75,0]];outlineConnect=0;fontColor=#232F3E;fillColor=#DD344C;strokeColor=#ffffff;dashed=0;verticalLabelPosition=bottom;verticalAlign=top;align=center;html=1;fontSize=12;fontStyle=0;aspect=fixed;shape=mxgraph.aws4.resourceIcon;resIcon=mxgraph.aws4.key_management_service;" vertex="1" parent="LXDzyqrESPQ0gwNqlJLr-20">
          <mxGeometry x="130" y="499.99999999999955" width="78" height="78" as="geometry" />
        </mxCell>
        <mxCell id="E7bKhl_w1srlUKCU2z49-12" value="" style="sketch=0;outlineConnect=0;fontColor=#232F3E;gradientColor=none;fillColor=#DD344C;strokeColor=none;dashed=0;verticalLabelPosition=bottom;verticalAlign=top;align=center;html=1;fontSize=12;fontStyle=0;aspect=fixed;pointerEvents=1;shape=mxgraph.aws4.data_encryption_key;" vertex="1" parent="LXDzyqrESPQ0gwNqlJLr-20">
          <mxGeometry x="473" y="499.75999999999976" width="62" height="78" as="geometry" />
        </mxCell>
        <mxCell id="E7bKhl_w1srlUKCU2z49-13" value="" style="sketch=0;outlineConnect=0;fontColor=#232F3E;gradientColor=none;fillColor=#DD344C;strokeColor=none;dashed=0;verticalLabelPosition=bottom;verticalAlign=top;align=center;html=1;fontSize=12;fontStyle=0;aspect=fixed;pointerEvents=1;shape=mxgraph.aws4.data_encryption_key;" vertex="1" parent="LXDzyqrESPQ0gwNqlJLr-20">
          <mxGeometry x="796" y="499.99999999999955" width="62" height="78" as="geometry" />
        </mxCell>
        <mxCell id="E7bKhl_w1srlUKCU2z49-14" value="" style="sketch=0;outlineConnect=0;fontColor=#232F3E;gradientColor=none;fillColor=#DD344C;strokeColor=none;dashed=0;verticalLabelPosition=bottom;verticalAlign=top;align=center;html=1;fontSize=12;fontStyle=0;aspect=fixed;pointerEvents=1;shape=mxgraph.aws4.data_encryption_key;" vertex="1" parent="LXDzyqrESPQ0gwNqlJLr-20">
          <mxGeometry x="1020" y="499.99999999999955" width="62" height="78" as="geometry" />
        </mxCell>
        <mxCell id="E7bKhl_w1srlUKCU2z49-15" value="" style="sketch=0;outlineConnect=0;fontColor=#232F3E;gradientColor=none;fillColor=#DD344C;strokeColor=none;dashed=0;verticalLabelPosition=bottom;verticalAlign=top;align=center;html=1;fontSize=12;fontStyle=0;aspect=fixed;pointerEvents=1;shape=mxgraph.aws4.data_encryption_key;" vertex="1" parent="LXDzyqrESPQ0gwNqlJLr-20">
          <mxGeometry x="1343" y="499.75999999999976" width="62" height="78" as="geometry" />
        </mxCell>
      </root>
    </mxGraphModel>
  </diagram>
</mxfile>
